PathFileType   4   (X/Y/Z)
DataRate	CameraRate	NumFrames	NumMarkers	Units	OrigDataRate	OrigDataStartFrame	OrigNumFrames
120.0	120.0	4	37	mm	120.0	141	161
Frame#	Time	midhip	hip_r	hip_l	knee_r	knee_l	ankle_r	ankle_l	midasis	asis_r	asis_l	psis_r	psis_l	epicondLat_r	epicondLat_l	epicondMed_r	epicondMed_l	malleolusLat_r	malleolusLat_l	malleolusMedv_r	malleolusMedv_l	neck	subclavicle_r	subclavicle_l	sternalnotch	xyphoidprocess	thighwand_r	thighwand_l	upperleg1_r	upperleg1_l	upperleg2_r	upperleg2_l	shankwand_r	shankwand_l	lowerleg1_r	lowerleg1_l	toe_r	toe_l
 	 	X1	Y1	Z1	X2	Y2	Z2	X3	Y3	Z3	X4	Y4	Z4	X5	Y5	Z5	X6	Y6	Z6	X7	Y7	Z7	X8	Y8	Z8	X9	Y9	Z9	X10	Y10	Z10	X11	Y11	Z11	X12	Y12	Z12	X13	Y13	Z13	X14	Y14	Z14	X15	Y15	Z15	X16	Y16	Z16	X17	Y17	Z17	X18	Y18	Z18	X19	Y19	Z19	X20	Y20	Z20	X21	Y21	Z21	X22	Y22	Z22	X23	Y23	Z23	X24	Y24	Z24	X25	Y25	Z25	X26	Y26	Z26	X27	Y27	Z27	X28	Y28	Z28	X29	Y29	Z29	X30	Y30	Z30	X31	Y31	Z31	X32	Y32	Z32	X33	Y33	Z33	X34	Y34	Z34	X35	Y35	Z35	X36	Y36	Z36	X37	Y37	Z37

	141	1.44167	2065.185	848.516	-241.546	2069.034	829.570	-177.669	2058.336	828.211	-294.644	2033.651	456.383	-193.142	2175.956	479.982	-323.685	1926.157	70.499	-190.050	2177.896	75.541	-333.142	2125.035	907.798	-236.700	2125.690	907.979	-136.459	2124.380	907.616	-336.940	1968.560	939.947	-210.497	1966.142	939.244	-264.723	2049.020	452.742	-140.458	2184.487	487.311	-377.012	2011.459	457.654	-238.495	2170.566	458.553	-280.603	1926.654	70.669	-151.553	2173.332	76.413	-371.360	1934.882	84.495	-222.841	2198.462	91.284	-311.511	2023.904	1348.702	-225.644	2124.554	1274.236	-182.911	2117.623	1272.431	-290.227	2106.204	1284.645	-240.897	2156.172	1116.416	-240.336	2182.240	615.750	-203.940	2251.603	671.173	-291.985	2120.418	669.115	-144.633	2175.405	696.410	-351.997	2103.915	585.618	-147.068	2201.164	612.701	-352.538	1972.676	184.653	-83.146	2123.201	196.944	-425.229	1965.996	193.880	-123.986	2142.816	201.706	-386.769	2041.270	39.214	-196.636	2295.327	52.430	-364.554
	142	1.45000	2068.643	847.954	-239.127	2071.856	829.397	-178.303	2062.184	827.961	-295.368	2035.728	456.340	-193.404	2179.821	479.940	-322.459	1926.417	70.894	-189.990	2192.100	75.551	-333.227	2128.554	907.444	-236.906	2128.328	907.711	-136.652	2128.781	907.177	-337.160	1971.717	940.172	-211.757	1970.639	938.947	-266.417	2050.849	452.740	-140.646	2188.726	487.098	-375.748	2013.709	457.580	-238.984	2174.215	458.310	-279.543	1926.865	71.108	-151.493	2187.594	76.432	-371.452	1935.125	84.772	-222.766	2212.642	91.545	-311.697	2027.694	1348.576	-226.456	2128.318	1274.158	-183.729	2121.556	1272.261	-290.953	2110.022	1284.461	-241.661	2160.081	1116.301	-240.921	2184.796	615.258	-203.772	2255.312	670.977	-290.862	2122.667	668.900	-144.740	2179.424	696.011	-351.452	2105.983	585.387	-147.194	2205.210	612.292	-351.647	1973.340	185.012	-83.154	2134.502	195.624	-425.079	1966.643	194.221	-124.012	2154.000	200.747	-386.692	2041.354	39.222	-196.650	2309.889	52.364	-364.012
	143	1.45833	2072.169	847.572	-237.258	2074.594	829.188	-179.006	2066.020	827.705	-296.155	2037.882	456.287	-193.708	2183.461	479.816	-321.310	1926.684	71.307	-189.928	2205.885	75.729	-333.156	2132.065	907.035	-237.119	2130.895	907.367	-136.859	2133.234	906.704	-337.380	1974.969	940.389	-213.101	1975.141	938.707	-268.126	2052.767	452.739	-140.880	2192.775	486.810	-374.551	2015.913	457.524	-239.367	2178.089	457.918	-278.845	1927.085	71.570	-151.431	2201.458	76.604	-371.390	1935.424	85.143	-222.685	2226.414	91.947	-311.635	2031.435	1348.412	-227.319	2132.103	1274.087	-184.463	2125.458	1272.042	-291.603	2113.842	1284.253	-242.429	2164.035	1116.175	-241.364	2187.426	614.767	-203.684	2258.903	670.607	-289.733	2125.074	668.624	-144.885	2183.347	695.534	-350.908	2108.168	585.174	-147.324	2209.276	611.942	-350.854	1974.035	185.369	-83.195	2145.539	194.375	-424.860	1967.304	194.536	-124.070	2165.051	199.898	-386.488	2041.419	39.230	-196.683	2324.047	52.627	-363.290
	144	1.46667	2075.842	847.324	-236.597	2077.292	828.947	-179.770	2069.857	827.438	-296.996	2040.102	456.222	-194.062	2186.906	479.607	-320.252	1926.955	71.743	-189.873	2219.197	76.047	-332.916	2135.589	906.574	-237.354	2133.442	906.956	-137.101	2137.735	906.192	-337.607	1978.328	940.587	-214.541	1979.596	938.539	-269.829	2054.765	452.731	-141.167	2196.664	486.446	-373.433	2017.984	457.673	-239.929	2182.209	457.348	-278.496	1927.315	72.056	-151.376	2214.865	76.901	-371.162	1935.795	85.571	-222.632	2239.597	92.463	-311.316	2035.161	1348.137	-228.331	2135.883	1273.936	-185.146	2129.322	1271.729	-292.251	2117.661	1284.020	-243.202	2167.975	1115.965	-241.773	2190.160	614.293	-203.699	2262.367	670.063	-288.598	2127.585	668.386	-144.964	2187.174	694.968	-350.302	2110.348	584.897	-147.492	2213.358	611.632	-350.123	1974.761	185.725	-83.271	2156.272	193.190	-424.565	1968.172	194.830	-124.128	2175.867	199.034	-386.046	2041.472	39.243	-196.726	2337.765	53.342	-362.416
